<mxfile host="app.diagrams.net" agent="Mozilla/5.0 (Windows NT 10.0; Win64; x64) AppleWebKit/537.36 (KHTML, like Gecko) Chrome/141.0.0.0 Safari/537.36" version="28.2.5">
  <diagram name="PÃ¡gina-1" id="gID8PrNtW_0bu_at2fO-">
    <mxGraphModel grid="1" page="1" gridSize="10" guides="1" tooltips="1" connect="1" arrows="1" fold="1" pageScale="1" pageWidth="827" pageHeight="1169" math="0" shadow="0">
      <root>
        <mxCell id="0" />
        <mxCell id="1" parent="0" />
        <mxCell id="K5bMglyp0Guv7E5LncOr-1" value="patients" style="whiteSpace=wrap;html=1;align=center;" vertex="1" parent="1">
          <mxGeometry x="280" y="330" width="100" height="40" as="geometry" />
        </mxCell>
        <mxCell id="K5bMglyp0Guv7E5LncOr-3" value="&lt;span style=&quot;border-bottom: 1px dotted&quot;&gt;patient_id&lt;/span&gt;" style="ellipse;whiteSpace=wrap;html=1;align=center;" vertex="1" parent="1">
          <mxGeometry x="160" y="170" width="100" height="40" as="geometry" />
        </mxCell>
        <mxCell id="K5bMglyp0Guv7E5LncOr-4" value="" style="endArrow=none;html=1;rounded=0;exitX=0.5;exitY=1;exitDx=0;exitDy=0;entryX=0.25;entryY=0;entryDx=0;entryDy=0;" edge="1" parent="1" source="K5bMglyp0Guv7E5LncOr-3" target="K5bMglyp0Guv7E5LncOr-1">
          <mxGeometry relative="1" as="geometry">
            <mxPoint x="330" y="300" as="sourcePoint" />
            <mxPoint x="340" y="320" as="targetPoint" />
          </mxGeometry>
        </mxCell>
        <mxCell id="K5bMglyp0Guv7E5LncOr-5" value="emergency_contact" style="ellipse;shape=doubleEllipse;margin=3;whiteSpace=wrap;html=1;align=center;" vertex="1" parent="1">
          <mxGeometry x="270" y="130" width="120" height="60" as="geometry" />
        </mxCell>
        <mxCell id="K5bMglyp0Guv7E5LncOr-6" value="" style="endArrow=none;html=1;rounded=0;exitX=0.5;exitY=1;exitDx=0;exitDy=0;entryX=0.5;entryY=0;entryDx=0;entryDy=0;" edge="1" parent="1" source="K5bMglyp0Guv7E5LncOr-5" target="K5bMglyp0Guv7E5LncOr-1">
          <mxGeometry relative="1" as="geometry">
            <mxPoint x="330" y="300" as="sourcePoint" />
            <mxPoint x="490" y="300" as="targetPoint" />
          </mxGeometry>
        </mxCell>
        <mxCell id="K5bMglyp0Guv7E5LncOr-7" value="date_of_birth" style="ellipse;whiteSpace=wrap;html=1;align=center;" vertex="1" parent="1">
          <mxGeometry x="370" y="200" width="100" height="40" as="geometry" />
        </mxCell>
        <mxCell id="K5bMglyp0Guv7E5LncOr-8" value="" style="endArrow=none;html=1;rounded=0;entryX=0.5;entryY=1;entryDx=0;entryDy=0;" edge="1" parent="1" target="K5bMglyp0Guv7E5LncOr-7">
          <mxGeometry relative="1" as="geometry">
            <mxPoint x="360" y="330" as="sourcePoint" />
            <mxPoint x="490" y="300" as="targetPoint" />
          </mxGeometry>
        </mxCell>
        <mxCell id="K5bMglyp0Guv7E5LncOr-9" value="full_name" style="ellipse;whiteSpace=wrap;html=1;align=center;dashed=1;" vertex="1" parent="1">
          <mxGeometry x="480" y="150" width="100" height="40" as="geometry" />
        </mxCell>
        <mxCell id="K5bMglyp0Guv7E5LncOr-10" value="" style="endArrow=none;html=1;rounded=0;exitX=0.5;exitY=1;exitDx=0;exitDy=0;entryX=1;entryY=0;entryDx=0;entryDy=0;" edge="1" parent="1" source="K5bMglyp0Guv7E5LncOr-9" target="K5bMglyp0Guv7E5LncOr-1">
          <mxGeometry relative="1" as="geometry">
            <mxPoint x="330" y="300" as="sourcePoint" />
            <mxPoint x="490" y="300" as="targetPoint" />
          </mxGeometry>
        </mxCell>
        <mxCell id="K5bMglyp0Guv7E5LncOr-12" value="first_name" style="ellipse;whiteSpace=wrap;html=1;align=center;" vertex="1" parent="1">
          <mxGeometry x="364" y="-20" width="100" height="40" as="geometry" />
        </mxCell>
        <mxCell id="K5bMglyp0Guv7E5LncOr-13" value="middle_name" style="ellipse;whiteSpace=wrap;html=1;align=center;" vertex="1" parent="1">
          <mxGeometry x="490" y="-20" width="100" height="40" as="geometry" />
        </mxCell>
        <mxCell id="K5bMglyp0Guv7E5LncOr-14" value="first_last_name" style="ellipse;whiteSpace=wrap;html=1;align=center;" vertex="1" parent="1">
          <mxGeometry x="610" y="-10" width="100" height="40" as="geometry" />
        </mxCell>
        <mxCell id="K5bMglyp0Guv7E5LncOr-15" value="second_last_name" style="ellipse;whiteSpace=wrap;html=1;align=center;" vertex="1" parent="1">
          <mxGeometry x="690" y="40" width="120" height="50" as="geometry" />
        </mxCell>
        <mxCell id="K5bMglyp0Guv7E5LncOr-16" value="" style="endArrow=none;html=1;rounded=0;exitX=0.5;exitY=1;exitDx=0;exitDy=0;entryX=0;entryY=0;entryDx=0;entryDy=0;" edge="1" parent="1" source="K5bMglyp0Guv7E5LncOr-12" target="K5bMglyp0Guv7E5LncOr-9">
          <mxGeometry relative="1" as="geometry">
            <mxPoint x="310" y="110" as="sourcePoint" />
            <mxPoint x="470" y="110" as="targetPoint" />
          </mxGeometry>
        </mxCell>
        <mxCell id="K5bMglyp0Guv7E5LncOr-17" value="" style="endArrow=none;html=1;rounded=0;exitX=0.5;exitY=1;exitDx=0;exitDy=0;entryX=0.292;entryY=0.04;entryDx=0;entryDy=0;entryPerimeter=0;" edge="1" parent="1" source="K5bMglyp0Guv7E5LncOr-13" target="K5bMglyp0Guv7E5LncOr-9">
          <mxGeometry relative="1" as="geometry">
            <mxPoint x="310" y="110" as="sourcePoint" />
            <mxPoint x="470" y="110" as="targetPoint" />
          </mxGeometry>
        </mxCell>
        <mxCell id="K5bMglyp0Guv7E5LncOr-18" value="" style="endArrow=none;html=1;rounded=0;exitX=0;exitY=1;exitDx=0;exitDy=0;entryX=0.5;entryY=0;entryDx=0;entryDy=0;" edge="1" parent="1" source="K5bMglyp0Guv7E5LncOr-14" target="K5bMglyp0Guv7E5LncOr-9">
          <mxGeometry relative="1" as="geometry">
            <mxPoint x="310" y="110" as="sourcePoint" />
            <mxPoint x="470" y="110" as="targetPoint" />
          </mxGeometry>
        </mxCell>
        <mxCell id="K5bMglyp0Guv7E5LncOr-19" value="" style="endArrow=none;html=1;rounded=0;exitX=0;exitY=1;exitDx=0;exitDy=0;entryX=1;entryY=0;entryDx=0;entryDy=0;" edge="1" parent="1" source="K5bMglyp0Guv7E5LncOr-15" target="K5bMglyp0Guv7E5LncOr-9">
          <mxGeometry relative="1" as="geometry">
            <mxPoint x="310" y="110" as="sourcePoint" />
            <mxPoint x="470" y="110" as="targetPoint" />
          </mxGeometry>
        </mxCell>
        <mxCell id="K5bMglyp0Guv7E5LncOr-20" value="document" style="ellipse;shape=doubleEllipse;margin=3;whiteSpace=wrap;html=1;align=center;" vertex="1" parent="1">
          <mxGeometry x="80" y="240" width="100" height="40" as="geometry" />
        </mxCell>
        <mxCell id="K5bMglyp0Guv7E5LncOr-21" value="" style="endArrow=none;html=1;rounded=0;exitX=1;exitY=1;exitDx=0;exitDy=0;entryX=0;entryY=0;entryDx=0;entryDy=0;" edge="1" parent="1" source="K5bMglyp0Guv7E5LncOr-20" target="K5bMglyp0Guv7E5LncOr-1">
          <mxGeometry relative="1" as="geometry">
            <mxPoint x="250" y="300" as="sourcePoint" />
            <mxPoint x="410" y="300" as="targetPoint" />
          </mxGeometry>
        </mxCell>
        <mxCell id="K5bMglyp0Guv7E5LncOr-22" value="adress" style="ellipse;shape=doubleEllipse;margin=3;whiteSpace=wrap;html=1;align=center;" vertex="1" parent="1">
          <mxGeometry x="60" y="320" width="100" height="40" as="geometry" />
        </mxCell>
        <mxCell id="K5bMglyp0Guv7E5LncOr-23" value="" style="endArrow=none;html=1;rounded=0;exitX=1;exitY=0.5;exitDx=0;exitDy=0;entryX=0;entryY=0.25;entryDx=0;entryDy=0;" edge="1" parent="1" source="K5bMglyp0Guv7E5LncOr-22" target="K5bMglyp0Guv7E5LncOr-1">
          <mxGeometry relative="1" as="geometry">
            <mxPoint x="250" y="300" as="sourcePoint" />
            <mxPoint x="410" y="300" as="targetPoint" />
          </mxGeometry>
        </mxCell>
        <mxCell id="K5bMglyp0Guv7E5LncOr-24" value="hour" style="ellipse;shape=doubleEllipse;margin=3;whiteSpace=wrap;html=1;align=center;" vertex="1" parent="1">
          <mxGeometry x="50" y="370" width="100" height="40" as="geometry" />
        </mxCell>
        <mxCell id="K5bMglyp0Guv7E5LncOr-25" value="" style="endArrow=none;html=1;rounded=0;exitX=1;exitY=0.5;exitDx=0;exitDy=0;entryX=0;entryY=0.5;entryDx=0;entryDy=0;" edge="1" parent="1" source="K5bMglyp0Guv7E5LncOr-24" target="K5bMglyp0Guv7E5LncOr-1">
          <mxGeometry relative="1" as="geometry">
            <mxPoint x="250" y="300" as="sourcePoint" />
            <mxPoint x="410" y="300" as="targetPoint" />
          </mxGeometry>
        </mxCell>
        <mxCell id="K5bMglyp0Guv7E5LncOr-26" value="sex" style="ellipse;whiteSpace=wrap;html=1;align=center;" vertex="1" parent="1">
          <mxGeometry x="130" y="430" width="100" height="40" as="geometry" />
        </mxCell>
        <mxCell id="K5bMglyp0Guv7E5LncOr-27" value="" style="endArrow=none;html=1;rounded=0;exitX=0.5;exitY=0;exitDx=0;exitDy=0;entryX=0;entryY=0.75;entryDx=0;entryDy=0;" edge="1" parent="1" source="K5bMglyp0Guv7E5LncOr-26" target="K5bMglyp0Guv7E5LncOr-1">
          <mxGeometry relative="1" as="geometry">
            <mxPoint x="250" y="300" as="sourcePoint" />
            <mxPoint x="280" y="370" as="targetPoint" />
          </mxGeometry>
        </mxCell>
        <mxCell id="K5bMglyp0Guv7E5LncOr-28" value="assest" style="ellipse;whiteSpace=wrap;html=1;align=center;" vertex="1" parent="1">
          <mxGeometry x="170" y="490" width="100" height="40" as="geometry" />
        </mxCell>
        <mxCell id="K5bMglyp0Guv7E5LncOr-29" value="" style="endArrow=none;html=1;rounded=0;exitX=0.5;exitY=0;exitDx=0;exitDy=0;entryX=0.25;entryY=1;entryDx=0;entryDy=0;" edge="1" parent="1" source="K5bMglyp0Guv7E5LncOr-28" target="K5bMglyp0Guv7E5LncOr-1">
          <mxGeometry relative="1" as="geometry">
            <mxPoint x="250" y="300" as="sourcePoint" />
            <mxPoint x="410" y="300" as="targetPoint" />
          </mxGeometry>
        </mxCell>
        <mxCell id="K5bMglyp0Guv7E5LncOr-30" value="email" style="ellipse;whiteSpace=wrap;html=1;align=center;" vertex="1" parent="1">
          <mxGeometry x="410" y="490" width="100" height="40" as="geometry" />
        </mxCell>
        <mxCell id="K5bMglyp0Guv7E5LncOr-31" value="" style="endArrow=none;html=1;rounded=0;entryX=0.5;entryY=0;entryDx=0;entryDy=0;exitX=0.75;exitY=1;exitDx=0;exitDy=0;" edge="1" parent="1" source="K5bMglyp0Guv7E5LncOr-1" target="K5bMglyp0Guv7E5LncOr-30">
          <mxGeometry relative="1" as="geometry">
            <mxPoint x="250" y="300" as="sourcePoint" />
            <mxPoint x="410" y="300" as="targetPoint" />
          </mxGeometry>
        </mxCell>
        <mxCell id="K5bMglyp0Guv7E5LncOr-33" value="" style="endArrow=none;html=1;rounded=0;exitX=1;exitY=0.5;exitDx=0;exitDy=0;entryX=0;entryY=0.5;entryDx=0;entryDy=0;" edge="1" parent="1" source="K5bMglyp0Guv7E5LncOr-1" target="K5bMglyp0Guv7E5LncOr-34">
          <mxGeometry relative="1" as="geometry">
            <mxPoint x="430" y="360" as="sourcePoint" />
            <mxPoint x="620" y="350" as="targetPoint" />
          </mxGeometry>
        </mxCell>
        <mxCell id="K5bMglyp0Guv7E5LncOr-34" value="has" style="shape=rhombus;double=1;perimeter=rhombusPerimeter;whiteSpace=wrap;html=1;align=center;" vertex="1" parent="1">
          <mxGeometry x="640" y="320" width="120" height="60" as="geometry" />
        </mxCell>
        <mxCell id="K5bMglyp0Guv7E5LncOr-35" value="" style="endArrow=none;html=1;rounded=0;exitX=1;exitY=0.5;exitDx=0;exitDy=0;entryX=0;entryY=0.5;entryDx=0;entryDy=0;" edge="1" parent="1" source="K5bMglyp0Guv7E5LncOr-34" target="K5bMglyp0Guv7E5LncOr-37">
          <mxGeometry relative="1" as="geometry">
            <mxPoint x="580" y="310" as="sourcePoint" />
            <mxPoint x="1020" y="350" as="targetPoint" />
          </mxGeometry>
        </mxCell>
        <mxCell id="K5bMglyp0Guv7E5LncOr-36" value="1:N" style="text;html=1;align=center;verticalAlign=middle;resizable=0;points=[];autosize=1;strokeColor=none;fillColor=none;" vertex="1" parent="1">
          <mxGeometry x="680" y="290" width="40" height="30" as="geometry" />
        </mxCell>
        <mxCell id="K5bMglyp0Guv7E5LncOr-37" value="policies" style="whiteSpace=wrap;html=1;align=center;" vertex="1" parent="1">
          <mxGeometry x="1040" y="330" width="100" height="40" as="geometry" />
        </mxCell>
        <mxCell id="K5bMglyp0Guv7E5LncOr-38" value="policy_id" style="ellipse;whiteSpace=wrap;html=1;align=center;fontStyle=4;" vertex="1" parent="1">
          <mxGeometry x="950" y="210" width="100" height="40" as="geometry" />
        </mxCell>
        <mxCell id="K5bMglyp0Guv7E5LncOr-39" value="" style="endArrow=none;html=1;rounded=0;exitX=0.5;exitY=1;exitDx=0;exitDy=0;entryX=0.25;entryY=0;entryDx=0;entryDy=0;" edge="1" parent="1" source="K5bMglyp0Guv7E5LncOr-38" target="K5bMglyp0Guv7E5LncOr-37">
          <mxGeometry relative="1" as="geometry">
            <mxPoint x="900" y="340" as="sourcePoint" />
            <mxPoint x="1060" y="340" as="targetPoint" />
          </mxGeometry>
        </mxCell>
        <mxCell id="K5bMglyp0Guv7E5LncOr-40" value="start_date" style="ellipse;whiteSpace=wrap;html=1;align=center;" vertex="1" parent="1">
          <mxGeometry x="1120" y="210" width="100" height="40" as="geometry" />
        </mxCell>
        <mxCell id="K5bMglyp0Guv7E5LncOr-41" value="" style="endArrow=none;html=1;rounded=0;exitX=0.5;exitY=1;exitDx=0;exitDy=0;entryX=0.75;entryY=0;entryDx=0;entryDy=0;" edge="1" parent="1" source="K5bMglyp0Guv7E5LncOr-40" target="K5bMglyp0Guv7E5LncOr-37">
          <mxGeometry relative="1" as="geometry">
            <mxPoint x="900" y="340" as="sourcePoint" />
            <mxPoint x="1060" y="340" as="targetPoint" />
          </mxGeometry>
        </mxCell>
        <mxCell id="K5bMglyp0Guv7E5LncOr-42" value="policy_number" style="ellipse;whiteSpace=wrap;html=1;align=center;" vertex="1" parent="1">
          <mxGeometry x="1110" y="460" width="100" height="40" as="geometry" />
        </mxCell>
        <mxCell id="K5bMglyp0Guv7E5LncOr-43" value="" style="endArrow=none;html=1;rounded=0;exitX=0.5;exitY=0;exitDx=0;exitDy=0;entryX=0.75;entryY=1;entryDx=0;entryDy=0;" edge="1" parent="1" source="K5bMglyp0Guv7E5LncOr-42" target="K5bMglyp0Guv7E5LncOr-37">
          <mxGeometry relative="1" as="geometry">
            <mxPoint x="900" y="340" as="sourcePoint" />
            <mxPoint x="1060" y="340" as="targetPoint" />
          </mxGeometry>
        </mxCell>
        <mxCell id="K5bMglyp0Guv7E5LncOr-44" value="coverage_summary" style="ellipse;whiteSpace=wrap;html=1;align=center;" vertex="1" parent="1">
          <mxGeometry x="950" y="460" width="115" height="50" as="geometry" />
        </mxCell>
        <mxCell id="K5bMglyp0Guv7E5LncOr-45" value="" style="endArrow=none;html=1;rounded=0;exitX=0.5;exitY=0;exitDx=0;exitDy=0;entryX=0.25;entryY=1;entryDx=0;entryDy=0;" edge="1" parent="1" source="K5bMglyp0Guv7E5LncOr-44" target="K5bMglyp0Guv7E5LncOr-37">
          <mxGeometry relative="1" as="geometry">
            <mxPoint x="900" y="340" as="sourcePoint" />
            <mxPoint x="1060" y="340" as="targetPoint" />
          </mxGeometry>
        </mxCell>
        <mxCell id="K5bMglyp0Guv7E5LncOr-46" value="" style="endArrow=none;html=1;rounded=0;exitX=1;exitY=0.5;exitDx=0;exitDy=0;entryX=0;entryY=0.5;entryDx=0;entryDy=0;" edge="1" parent="1" source="K5bMglyp0Guv7E5LncOr-37" target="K5bMglyp0Guv7E5LncOr-48">
          <mxGeometry relative="1" as="geometry">
            <mxPoint x="1180" y="340" as="sourcePoint" />
            <mxPoint x="1390" y="350" as="targetPoint" />
          </mxGeometry>
        </mxCell>
        <mxCell id="K5bMglyp0Guv7E5LncOr-48" value="consulation" style="shape=rhombus;double=1;perimeter=rhombusPerimeter;whiteSpace=wrap;html=1;align=center;" vertex="1" parent="1">
          <mxGeometry x="1380" y="320" width="120" height="60" as="geometry" />
        </mxCell>
        <mxCell id="K5bMglyp0Guv7E5LncOr-49" value="N:1" style="text;html=1;align=center;verticalAlign=middle;resizable=0;points=[];autosize=1;strokeColor=none;fillColor=none;" vertex="1" parent="1">
          <mxGeometry x="1420" y="288" width="40" height="30" as="geometry" />
        </mxCell>
        <mxCell id="K5bMglyp0Guv7E5LncOr-50" value="" style="endArrow=none;html=1;rounded=0;exitX=1;exitY=0.5;exitDx=0;exitDy=0;entryX=0;entryY=0.5;entryDx=0;entryDy=0;" edge="1" parent="1" source="K5bMglyp0Guv7E5LncOr-48" target="K5bMglyp0Guv7E5LncOr-51">
          <mxGeometry relative="1" as="geometry">
            <mxPoint x="1300" y="360" as="sourcePoint" />
            <mxPoint x="1710" y="350" as="targetPoint" />
          </mxGeometry>
        </mxCell>
        <mxCell id="K5bMglyp0Guv7E5LncOr-51" value="insurers" style="whiteSpace=wrap;html=1;align=center;" vertex="1" parent="1">
          <mxGeometry x="1630" y="330" width="100" height="40" as="geometry" />
        </mxCell>
        <mxCell id="K5bMglyp0Guv7E5LncOr-52" value="insurer_id" style="ellipse;whiteSpace=wrap;html=1;align=center;fontStyle=4;" vertex="1" parent="1">
          <mxGeometry x="1630" y="230" width="100" height="40" as="geometry" />
        </mxCell>
        <mxCell id="K5bMglyp0Guv7E5LncOr-53" value="" style="endArrow=none;html=1;rounded=0;exitX=0.5;exitY=1;exitDx=0;exitDy=0;entryX=0.5;entryY=0;entryDx=0;entryDy=0;" edge="1" parent="1" source="K5bMglyp0Guv7E5LncOr-52" target="K5bMglyp0Guv7E5LncOr-51">
          <mxGeometry relative="1" as="geometry">
            <mxPoint x="1440" y="360" as="sourcePoint" />
            <mxPoint x="1600" y="360" as="targetPoint" />
          </mxGeometry>
        </mxCell>
        <mxCell id="K5bMglyp0Guv7E5LncOr-54" value="name" style="ellipse;whiteSpace=wrap;html=1;align=center;" vertex="1" parent="1">
          <mxGeometry x="1770" y="330" width="100" height="40" as="geometry" />
        </mxCell>
        <mxCell id="K5bMglyp0Guv7E5LncOr-55" value="" style="endArrow=none;html=1;rounded=0;entryX=0;entryY=0.5;entryDx=0;entryDy=0;exitX=1;exitY=0.5;exitDx=0;exitDy=0;" edge="1" parent="1" source="K5bMglyp0Guv7E5LncOr-51" target="K5bMglyp0Guv7E5LncOr-54">
          <mxGeometry relative="1" as="geometry">
            <mxPoint x="1830" y="350" as="sourcePoint" />
            <mxPoint x="1600" y="360" as="targetPoint" />
          </mxGeometry>
        </mxCell>
        <mxCell id="K5bMglyp0Guv7E5LncOr-56" value="contact" style="ellipse;whiteSpace=wrap;html=1;align=center;" vertex="1" parent="1">
          <mxGeometry x="1630" y="420" width="100" height="40" as="geometry" />
        </mxCell>
        <mxCell id="K5bMglyp0Guv7E5LncOr-57" value="" style="endArrow=none;html=1;rounded=0;entryX=0.5;entryY=0;entryDx=0;entryDy=0;exitX=0.5;exitY=1;exitDx=0;exitDy=0;" edge="1" parent="1" source="K5bMglyp0Guv7E5LncOr-51" target="K5bMglyp0Guv7E5LncOr-56">
          <mxGeometry relative="1" as="geometry">
            <mxPoint x="1440" y="360" as="sourcePoint" />
            <mxPoint x="1600" y="360" as="targetPoint" />
          </mxGeometry>
        </mxCell>
        <mxCell id="kQzFKEU-ifT5Cz4b_QPa-1" value="" style="endArrow=none;html=1;rounded=0;exitX=0.5;exitY=1;exitDx=0;exitDy=0;entryX=0.5;entryY=0;entryDx=0;entryDy=0;" edge="1" parent="1" source="K5bMglyp0Guv7E5LncOr-1" target="kQzFKEU-ifT5Cz4b_QPa-2">
          <mxGeometry relative="1" as="geometry">
            <mxPoint x="430" y="610" as="sourcePoint" />
            <mxPoint x="330" y="630" as="targetPoint" />
          </mxGeometry>
        </mxCell>
        <mxCell id="kQzFKEU-ifT5Cz4b_QPa-2" value="take" style="shape=rhombus;perimeter=rhombusPerimeter;whiteSpace=wrap;html=1;align=center;" vertex="1" parent="1">
          <mxGeometry x="270" y="620" width="120" height="60" as="geometry" />
        </mxCell>
        <mxCell id="kQzFKEU-ifT5Cz4b_QPa-3" value="" style="endArrow=none;html=1;rounded=0;exitX=0.5;exitY=1;exitDx=0;exitDy=0;entryX=0.5;entryY=0;entryDx=0;entryDy=0;" edge="1" parent="1" source="kQzFKEU-ifT5Cz4b_QPa-2" target="kQzFKEU-ifT5Cz4b_QPa-4">
          <mxGeometry relative="1" as="geometry">
            <mxPoint x="430" y="610" as="sourcePoint" />
            <mxPoint x="330" y="860" as="targetPoint" />
          </mxGeometry>
        </mxCell>
        <mxCell id="kQzFKEU-ifT5Cz4b_QPa-4" value="quotes" style="whiteSpace=wrap;html=1;align=center;" vertex="1" parent="1">
          <mxGeometry x="280" y="880" width="100" height="40" as="geometry" />
        </mxCell>
        <mxCell id="kQzFKEU-ifT5Cz4b_QPa-5" value="appointment_id" style="ellipse;whiteSpace=wrap;html=1;align=center;fontStyle=4;" vertex="1" parent="1">
          <mxGeometry x="160" y="730" width="100" height="40" as="geometry" />
        </mxCell>
        <mxCell id="kQzFKEU-ifT5Cz4b_QPa-6" value="" style="endArrow=none;html=1;rounded=0;exitX=1;exitY=1;exitDx=0;exitDy=0;entryX=0.25;entryY=0;entryDx=0;entryDy=0;" edge="1" parent="1" source="kQzFKEU-ifT5Cz4b_QPa-5" target="kQzFKEU-ifT5Cz4b_QPa-4">
          <mxGeometry relative="1" as="geometry">
            <mxPoint x="460" y="870" as="sourcePoint" />
            <mxPoint x="620" y="870" as="targetPoint" />
          </mxGeometry>
        </mxCell>
        <mxCell id="kQzFKEU-ifT5Cz4b_QPa-7" value="created_by" style="ellipse;whiteSpace=wrap;html=1;align=center;" vertex="1" parent="1">
          <mxGeometry x="80" y="770" width="100" height="40" as="geometry" />
        </mxCell>
        <mxCell id="kQzFKEU-ifT5Cz4b_QPa-8" value="" style="endArrow=none;html=1;rounded=0;exitX=1;exitY=1;exitDx=0;exitDy=0;entryX=0;entryY=0;entryDx=0;entryDy=0;" edge="1" parent="1" source="kQzFKEU-ifT5Cz4b_QPa-7" target="kQzFKEU-ifT5Cz4b_QPa-4">
          <mxGeometry relative="1" as="geometry">
            <mxPoint x="460" y="870" as="sourcePoint" />
            <mxPoint x="620" y="870" as="targetPoint" />
          </mxGeometry>
        </mxCell>
        <mxCell id="kQzFKEU-ifT5Cz4b_QPa-9" value="attention_type" style="ellipse;whiteSpace=wrap;html=1;align=center;" vertex="1" parent="1">
          <mxGeometry x="50" y="820" width="100" height="40" as="geometry" />
        </mxCell>
        <mxCell id="kQzFKEU-ifT5Cz4b_QPa-11" value="" style="endArrow=none;html=1;rounded=0;exitX=1;exitY=1;exitDx=0;exitDy=0;entryX=0;entryY=0.25;entryDx=0;entryDy=0;" edge="1" parent="1" source="kQzFKEU-ifT5Cz4b_QPa-9" target="kQzFKEU-ifT5Cz4b_QPa-4">
          <mxGeometry relative="1" as="geometry">
            <mxPoint x="460" y="870" as="sourcePoint" />
            <mxPoint x="620" y="870" as="targetPoint" />
          </mxGeometry>
        </mxCell>
        <mxCell id="kQzFKEU-ifT5Cz4b_QPa-12" value="reason" style="ellipse;whiteSpace=wrap;html=1;align=center;" vertex="1" parent="1">
          <mxGeometry x="40" y="880" width="100" height="40" as="geometry" />
        </mxCell>
        <mxCell id="kQzFKEU-ifT5Cz4b_QPa-13" value="" style="endArrow=none;html=1;rounded=0;exitX=1;exitY=0.5;exitDx=0;exitDy=0;entryX=0;entryY=0.5;entryDx=0;entryDy=0;entryPerimeter=0;" edge="1" parent="1" source="kQzFKEU-ifT5Cz4b_QPa-12" target="kQzFKEU-ifT5Cz4b_QPa-4">
          <mxGeometry relative="1" as="geometry">
            <mxPoint x="460" y="870" as="sourcePoint" />
            <mxPoint x="620" y="870" as="targetPoint" />
          </mxGeometry>
        </mxCell>
        <mxCell id="kQzFKEU-ifT5Cz4b_QPa-14" value="state" style="ellipse;whiteSpace=wrap;html=1;align=center;" vertex="1" parent="1">
          <mxGeometry x="30" y="940" width="100" height="40" as="geometry" />
        </mxCell>
        <mxCell id="kQzFKEU-ifT5Cz4b_QPa-15" value="" style="endArrow=none;html=1;rounded=0;exitX=1;exitY=0;exitDx=0;exitDy=0;entryX=0;entryY=0.75;entryDx=0;entryDy=0;" edge="1" parent="1" source="kQzFKEU-ifT5Cz4b_QPa-14" target="kQzFKEU-ifT5Cz4b_QPa-4">
          <mxGeometry relative="1" as="geometry">
            <mxPoint x="460" y="870" as="sourcePoint" />
            <mxPoint x="620" y="870" as="targetPoint" />
          </mxGeometry>
        </mxCell>
        <mxCell id="kQzFKEU-ifT5Cz4b_QPa-16" value="end_time" style="ellipse;whiteSpace=wrap;html=1;align=center;" vertex="1" parent="1">
          <mxGeometry x="40" y="1000" width="100" height="40" as="geometry" />
        </mxCell>
        <mxCell id="kQzFKEU-ifT5Cz4b_QPa-17" value="" style="endArrow=none;html=1;rounded=0;exitX=1;exitY=0;exitDx=0;exitDy=0;entryX=0;entryY=1;entryDx=0;entryDy=0;" edge="1" parent="1" source="kQzFKEU-ifT5Cz4b_QPa-16" target="kQzFKEU-ifT5Cz4b_QPa-4">
          <mxGeometry relative="1" as="geometry">
            <mxPoint x="460" y="870" as="sourcePoint" />
            <mxPoint x="620" y="870" as="targetPoint" />
          </mxGeometry>
        </mxCell>
        <mxCell id="kQzFKEU-ifT5Cz4b_QPa-18" value="start_time" style="ellipse;whiteSpace=wrap;html=1;align=center;" vertex="1" parent="1">
          <mxGeometry x="80" y="1050" width="100" height="40" as="geometry" />
        </mxCell>
        <mxCell id="kQzFKEU-ifT5Cz4b_QPa-19" value="" style="endArrow=none;html=1;rounded=0;exitX=1;exitY=0;exitDx=0;exitDy=0;entryX=0.25;entryY=1;entryDx=0;entryDy=0;" edge="1" parent="1" source="kQzFKEU-ifT5Cz4b_QPa-18" target="kQzFKEU-ifT5Cz4b_QPa-4">
          <mxGeometry relative="1" as="geometry">
            <mxPoint x="240" y="1039" as="sourcePoint" />
            <mxPoint x="400" y="1039" as="targetPoint" />
          </mxGeometry>
        </mxCell>
        <mxCell id="kQzFKEU-ifT5Cz4b_QPa-20" value="date" style="ellipse;whiteSpace=wrap;html=1;align=center;" vertex="1" parent="1">
          <mxGeometry x="210" y="1060" width="100" height="40" as="geometry" />
        </mxCell>
        <mxCell id="kQzFKEU-ifT5Cz4b_QPa-21" value="" style="endArrow=none;html=1;rounded=0;exitX=0.5;exitY=0;exitDx=0;exitDy=0;entryX=0.5;entryY=1;entryDx=0;entryDy=0;" edge="1" parent="1" source="kQzFKEU-ifT5Cz4b_QPa-20" target="kQzFKEU-ifT5Cz4b_QPa-4">
          <mxGeometry relative="1" as="geometry">
            <mxPoint x="460" y="870" as="sourcePoint" />
            <mxPoint x="620" y="870" as="targetPoint" />
          </mxGeometry>
        </mxCell>
        <mxCell id="kQzFKEU-ifT5Cz4b_QPa-22" value="creation_date" style="ellipse;whiteSpace=wrap;html=1;align=center;" vertex="1" parent="1">
          <mxGeometry x="340" y="1060" width="100" height="40" as="geometry" />
        </mxCell>
        <mxCell id="kQzFKEU-ifT5Cz4b_QPa-23" value="" style="endArrow=none;html=1;rounded=0;exitX=0.5;exitY=0;exitDx=0;exitDy=0;entryX=0.75;entryY=1;entryDx=0;entryDy=0;" edge="1" parent="1" source="kQzFKEU-ifT5Cz4b_QPa-22" target="kQzFKEU-ifT5Cz4b_QPa-4">
          <mxGeometry relative="1" as="geometry">
            <mxPoint x="460" y="870" as="sourcePoint" />
            <mxPoint x="620" y="870" as="targetPoint" />
          </mxGeometry>
        </mxCell>
        <mxCell id="kQzFKEU-ifT5Cz4b_QPa-24" value="" style="endArrow=none;html=1;rounded=0;exitX=1;exitY=0.5;exitDx=0;exitDy=0;entryX=0;entryY=0.5;entryDx=0;entryDy=0;" edge="1" parent="1" source="kQzFKEU-ifT5Cz4b_QPa-4" target="kQzFKEU-ifT5Cz4b_QPa-25">
          <mxGeometry relative="1" as="geometry">
            <mxPoint x="460" y="870" as="sourcePoint" />
            <mxPoint x="630" y="900" as="targetPoint" />
          </mxGeometry>
        </mxCell>
        <mxCell id="kQzFKEU-ifT5Cz4b_QPa-25" value="has" style="shape=rhombus;perimeter=rhombusPerimeter;whiteSpace=wrap;html=1;align=center;" vertex="1" parent="1">
          <mxGeometry x="550" y="870" width="120" height="60" as="geometry" />
        </mxCell>
        <mxCell id="kQzFKEU-ifT5Cz4b_QPa-26" value="" style="endArrow=none;html=1;rounded=0;exitX=1;exitY=0.5;exitDx=0;exitDy=0;entryX=0;entryY=0.5;entryDx=0;entryDy=0;" edge="1" parent="1" source="kQzFKEU-ifT5Cz4b_QPa-25" target="kQzFKEU-ifT5Cz4b_QPa-27">
          <mxGeometry relative="1" as="geometry">
            <mxPoint x="460" y="870" as="sourcePoint" />
            <mxPoint x="850" y="900" as="targetPoint" />
          </mxGeometry>
        </mxCell>
        <mxCell id="kQzFKEU-ifT5Cz4b_QPa-27" value="doctors" style="whiteSpace=wrap;html=1;align=center;" vertex="1" parent="1">
          <mxGeometry x="840" y="880" width="100" height="40" as="geometry" />
        </mxCell>
        <mxCell id="kQzFKEU-ifT5Cz4b_QPa-28" value="surnames" style="ellipse;whiteSpace=wrap;html=1;align=center;" vertex="1" parent="1">
          <mxGeometry x="660" y="770" width="100" height="40" as="geometry" />
        </mxCell>
        <mxCell id="kQzFKEU-ifT5Cz4b_QPa-29" value="" style="endArrow=none;html=1;rounded=0;exitX=1;exitY=1;exitDx=0;exitDy=0;entryX=0;entryY=0;entryDx=0;entryDy=0;" edge="1" parent="1" source="kQzFKEU-ifT5Cz4b_QPa-28" target="kQzFKEU-ifT5Cz4b_QPa-27">
          <mxGeometry relative="1" as="geometry">
            <mxPoint x="460" y="870" as="sourcePoint" />
            <mxPoint x="620" y="870" as="targetPoint" />
          </mxGeometry>
        </mxCell>
        <mxCell id="kQzFKEU-ifT5Cz4b_QPa-30" value="names" style="ellipse;whiteSpace=wrap;html=1;align=center;" vertex="1" parent="1">
          <mxGeometry x="720" y="700" width="100" height="40" as="geometry" />
        </mxCell>
        <mxCell id="kQzFKEU-ifT5Cz4b_QPa-31" value="" style="endArrow=none;html=1;rounded=0;exitX=1;exitY=1;exitDx=0;exitDy=0;entryX=0.25;entryY=0;entryDx=0;entryDy=0;" edge="1" parent="1" source="kQzFKEU-ifT5Cz4b_QPa-30" target="kQzFKEU-ifT5Cz4b_QPa-27">
          <mxGeometry relative="1" as="geometry">
            <mxPoint x="460" y="870" as="sourcePoint" />
            <mxPoint x="620" y="870" as="targetPoint" />
          </mxGeometry>
        </mxCell>
        <mxCell id="kQzFKEU-ifT5Cz4b_QPa-32" value="doctor_id" style="ellipse;whiteSpace=wrap;html=1;align=center;fontStyle=4;" vertex="1" parent="1">
          <mxGeometry x="827" y="640" width="100" height="40" as="geometry" />
        </mxCell>
        <mxCell id="kQzFKEU-ifT5Cz4b_QPa-33" value="" style="endArrow=none;html=1;rounded=0;exitX=0.5;exitY=1;exitDx=0;exitDy=0;entryX=0.5;entryY=0;entryDx=0;entryDy=0;" edge="1" parent="1" source="kQzFKEU-ifT5Cz4b_QPa-32" target="kQzFKEU-ifT5Cz4b_QPa-27">
          <mxGeometry relative="1" as="geometry">
            <mxPoint x="460" y="870" as="sourcePoint" />
            <mxPoint x="620" y="870" as="targetPoint" />
          </mxGeometry>
        </mxCell>
        <mxCell id="kQzFKEU-ifT5Cz4b_QPa-34" value="hospital_admission_date" style="ellipse;whiteSpace=wrap;html=1;align=center;" vertex="1" parent="1">
          <mxGeometry x="950" y="640" width="150" height="45" as="geometry" />
        </mxCell>
        <mxCell id="kQzFKEU-ifT5Cz4b_QPa-35" value="" style="endArrow=none;html=1;rounded=0;exitX=0.5;exitY=1;exitDx=0;exitDy=0;entryX=0.75;entryY=0;entryDx=0;entryDy=0;" edge="1" parent="1" source="kQzFKEU-ifT5Cz4b_QPa-34" target="kQzFKEU-ifT5Cz4b_QPa-27">
          <mxGeometry relative="1" as="geometry">
            <mxPoint x="460" y="870" as="sourcePoint" />
            <mxPoint x="620" y="870" as="targetPoint" />
          </mxGeometry>
        </mxCell>
        <mxCell id="kQzFKEU-ifT5Cz4b_QPa-36" value="asset" style="ellipse;whiteSpace=wrap;html=1;align=center;" vertex="1" parent="1">
          <mxGeometry x="1040" y="710" width="100" height="40" as="geometry" />
        </mxCell>
        <mxCell id="kQzFKEU-ifT5Cz4b_QPa-37" value="" style="endArrow=none;html=1;rounded=0;exitX=0;exitY=1;exitDx=0;exitDy=0;entryX=1;entryY=0;entryDx=0;entryDy=0;" edge="1" parent="1" source="kQzFKEU-ifT5Cz4b_QPa-36" target="kQzFKEU-ifT5Cz4b_QPa-27">
          <mxGeometry relative="1" as="geometry">
            <mxPoint x="770" y="820" as="sourcePoint" />
            <mxPoint x="930" y="820" as="targetPoint" />
          </mxGeometry>
        </mxCell>
        <mxCell id="kQzFKEU-ifT5Cz4b_QPa-38" value="medical_shedule" style="ellipse;shape=doubleEllipse;margin=3;whiteSpace=wrap;html=1;align=center;" vertex="1" parent="1">
          <mxGeometry x="1120" y="760" width="110" height="40" as="geometry" />
        </mxCell>
        <mxCell id="kQzFKEU-ifT5Cz4b_QPa-39" value="" style="endArrow=none;html=1;rounded=0;entryX=0;entryY=1;entryDx=0;entryDy=0;exitX=1;exitY=0.25;exitDx=0;exitDy=0;" edge="1" parent="1" source="kQzFKEU-ifT5Cz4b_QPa-27" target="kQzFKEU-ifT5Cz4b_QPa-38">
          <mxGeometry relative="1" as="geometry">
            <mxPoint x="770" y="820" as="sourcePoint" />
            <mxPoint x="930" y="820" as="targetPoint" />
          </mxGeometry>
        </mxCell>
        <mxCell id="kQzFKEU-ifT5Cz4b_QPa-41" value="profecional_email" style="ellipse;whiteSpace=wrap;html=1;align=center;" vertex="1" parent="1">
          <mxGeometry x="1131" y="820" width="110" height="40" as="geometry" />
        </mxCell>
        <mxCell id="kQzFKEU-ifT5Cz4b_QPa-42" value="" style="endArrow=none;html=1;rounded=0;exitX=0;exitY=0.5;exitDx=0;exitDy=0;entryX=1;entryY=0.5;entryDx=0;entryDy=0;" edge="1" parent="1" source="kQzFKEU-ifT5Cz4b_QPa-41" target="kQzFKEU-ifT5Cz4b_QPa-27">
          <mxGeometry relative="1" as="geometry">
            <mxPoint x="770" y="820" as="sourcePoint" />
            <mxPoint x="930" y="820" as="targetPoint" />
          </mxGeometry>
        </mxCell>
        <mxCell id="kQzFKEU-ifT5Cz4b_QPa-43" value="practice_direction" style="ellipse;shape=doubleEllipse;margin=3;whiteSpace=wrap;html=1;align=center;" vertex="1" parent="1">
          <mxGeometry x="1131" y="880" width="110" height="50" as="geometry" />
        </mxCell>
        <mxCell id="kQzFKEU-ifT5Cz4b_QPa-44" value="" style="endArrow=none;html=1;rounded=0;entryX=0;entryY=0.5;entryDx=0;entryDy=0;exitX=1;exitY=0.75;exitDx=0;exitDy=0;" edge="1" parent="1" source="kQzFKEU-ifT5Cz4b_QPa-27" target="kQzFKEU-ifT5Cz4b_QPa-43">
          <mxGeometry relative="1" as="geometry">
            <mxPoint x="770" y="820" as="sourcePoint" />
            <mxPoint x="930" y="820" as="targetPoint" />
          </mxGeometry>
        </mxCell>
        <mxCell id="kQzFKEU-ifT5Cz4b_QPa-45" value="specialty" style="ellipse;shape=doubleEllipse;margin=3;whiteSpace=wrap;html=1;align=center;" vertex="1" parent="1">
          <mxGeometry x="1141" y="950" width="100" height="40" as="geometry" />
        </mxCell>
        <mxCell id="kQzFKEU-ifT5Cz4b_QPa-46" value="" style="endArrow=none;html=1;rounded=0;entryX=0;entryY=0.5;entryDx=0;entryDy=0;exitX=1;exitY=1;exitDx=0;exitDy=0;" edge="1" parent="1" source="kQzFKEU-ifT5Cz4b_QPa-27" target="kQzFKEU-ifT5Cz4b_QPa-45">
          <mxGeometry relative="1" as="geometry">
            <mxPoint x="770" y="820" as="sourcePoint" />
            <mxPoint x="930" y="820" as="targetPoint" />
          </mxGeometry>
        </mxCell>
        <mxCell id="kQzFKEU-ifT5Cz4b_QPa-47" value="internal_code" style="ellipse;whiteSpace=wrap;html=1;align=center;" vertex="1" parent="1">
          <mxGeometry x="1080" y="1020" width="100" height="40" as="geometry" />
        </mxCell>
        <mxCell id="kQzFKEU-ifT5Cz4b_QPa-49" value="" style="endArrow=none;html=1;rounded=0;entryX=0;entryY=0.5;entryDx=0;entryDy=0;exitX=0.75;exitY=1;exitDx=0;exitDy=0;" edge="1" parent="1" source="kQzFKEU-ifT5Cz4b_QPa-27" target="kQzFKEU-ifT5Cz4b_QPa-47">
          <mxGeometry relative="1" as="geometry">
            <mxPoint x="770" y="820" as="sourcePoint" />
            <mxPoint x="930" y="820" as="targetPoint" />
          </mxGeometry>
        </mxCell>
        <mxCell id="kQzFKEU-ifT5Cz4b_QPa-50" value="phone" style="ellipse;shape=doubleEllipse;margin=3;whiteSpace=wrap;html=1;align=center;" vertex="1" parent="1">
          <mxGeometry x="690" y="1050" width="100" height="40" as="geometry" />
        </mxCell>
        <mxCell id="kQzFKEU-ifT5Cz4b_QPa-51" value="" style="endArrow=none;html=1;rounded=0;exitX=0.5;exitY=0;exitDx=0;exitDy=0;entryX=0.25;entryY=1;entryDx=0;entryDy=0;" edge="1" parent="1" source="kQzFKEU-ifT5Cz4b_QPa-50" target="kQzFKEU-ifT5Cz4b_QPa-27">
          <mxGeometry relative="1" as="geometry">
            <mxPoint x="770" y="820" as="sourcePoint" />
            <mxPoint x="930" y="820" as="targetPoint" />
          </mxGeometry>
        </mxCell>
        <mxCell id="kQzFKEU-ifT5Cz4b_QPa-52" value="tuition_number" style="ellipse;whiteSpace=wrap;html=1;align=center;" vertex="1" parent="1">
          <mxGeometry x="630" y="990" width="100" height="40" as="geometry" />
        </mxCell>
        <mxCell id="kQzFKEU-ifT5Cz4b_QPa-53" value="" style="endArrow=none;html=1;rounded=0;exitX=1;exitY=0;exitDx=0;exitDy=0;entryX=0;entryY=1;entryDx=0;entryDy=0;" edge="1" parent="1" source="kQzFKEU-ifT5Cz4b_QPa-52" target="kQzFKEU-ifT5Cz4b_QPa-27">
          <mxGeometry relative="1" as="geometry">
            <mxPoint x="770" y="820" as="sourcePoint" />
            <mxPoint x="930" y="820" as="targetPoint" />
          </mxGeometry>
        </mxCell>
        <mxCell id="kQzFKEU-ifT5Cz4b_QPa-54" value="1:N" style="text;html=1;align=center;verticalAlign=middle;resizable=0;points=[];autosize=1;strokeColor=none;fillColor=none;" vertex="1" parent="1">
          <mxGeometry x="590" y="838" width="40" height="30" as="geometry" />
        </mxCell>
        <mxCell id="kQzFKEU-ifT5Cz4b_QPa-55" value="1:N" style="text;html=1;align=center;verticalAlign=middle;resizable=0;points=[];autosize=1;strokeColor=none;fillColor=none;" vertex="1" parent="1">
          <mxGeometry x="390" y="635" width="40" height="30" as="geometry" />
        </mxCell>
        <mxCell id="kQzFKEU-ifT5Cz4b_QPa-56" value="" style="endArrow=none;html=1;rounded=0;exitX=0.5;exitY=1;exitDx=0;exitDy=0;entryX=0.5;entryY=0;entryDx=0;entryDy=0;" edge="1" parent="1" source="kQzFKEU-ifT5Cz4b_QPa-27" target="kQzFKEU-ifT5Cz4b_QPa-57">
          <mxGeometry relative="1" as="geometry">
            <mxPoint x="890" y="1070" as="sourcePoint" />
            <mxPoint x="890" y="1200" as="targetPoint" />
          </mxGeometry>
        </mxCell>
        <mxCell id="kQzFKEU-ifT5Cz4b_QPa-57" value="register" style="shape=rhombus;double=1;perimeter=rhombusPerimeter;whiteSpace=wrap;html=1;align=center;" vertex="1" parent="1">
          <mxGeometry x="830" y="1150" width="120" height="60" as="geometry" />
        </mxCell>
        <mxCell id="kQzFKEU-ifT5Cz4b_QPa-58" value="" style="endArrow=none;html=1;rounded=0;exitX=0.5;exitY=1;exitDx=0;exitDy=0;entryX=0.5;entryY=0;entryDx=0;entryDy=0;" edge="1" parent="1" source="kQzFKEU-ifT5Cz4b_QPa-57" target="kQzFKEU-ifT5Cz4b_QPa-59">
          <mxGeometry relative="1" as="geometry">
            <mxPoint x="890" y="1180" as="sourcePoint" />
            <mxPoint x="890" y="1400" as="targetPoint" />
          </mxGeometry>
        </mxCell>
        <mxCell id="kQzFKEU-ifT5Cz4b_QPa-59" value="clinical_stories" style="whiteSpace=wrap;html=1;align=center;" vertex="1" parent="1">
          <mxGeometry x="840" y="1430" width="100" height="40" as="geometry" />
        </mxCell>
        <mxCell id="kQzFKEU-ifT5Cz4b_QPa-60" value="story_id" style="ellipse;whiteSpace=wrap;html=1;align=center;fontStyle=4;" vertex="1" parent="1">
          <mxGeometry x="720" y="1260" width="100" height="40" as="geometry" />
        </mxCell>
        <mxCell id="kQzFKEU-ifT5Cz4b_QPa-61" value="" style="endArrow=none;html=1;rounded=0;exitX=1;exitY=1;exitDx=0;exitDy=0;entryX=0.25;entryY=0;entryDx=0;entryDy=0;" edge="1" parent="1" source="kQzFKEU-ifT5Cz4b_QPa-60" target="kQzFKEU-ifT5Cz4b_QPa-59">
          <mxGeometry relative="1" as="geometry">
            <mxPoint x="870" y="1490" as="sourcePoint" />
            <mxPoint x="1030" y="1490" as="targetPoint" />
          </mxGeometry>
        </mxCell>
        <mxCell id="kQzFKEU-ifT5Cz4b_QPa-62" value="record_type" style="ellipse;whiteSpace=wrap;html=1;align=center;" vertex="1" parent="1">
          <mxGeometry x="650" y="1300" width="100" height="40" as="geometry" />
        </mxCell>
        <mxCell id="kQzFKEU-ifT5Cz4b_QPa-63" value="" style="endArrow=none;html=1;rounded=0;exitX=1;exitY=1;exitDx=0;exitDy=0;entryX=0;entryY=0;entryDx=0;entryDy=0;" edge="1" parent="1" source="kQzFKEU-ifT5Cz4b_QPa-62" target="kQzFKEU-ifT5Cz4b_QPa-59">
          <mxGeometry relative="1" as="geometry">
            <mxPoint x="870" y="1490" as="sourcePoint" />
            <mxPoint x="1030" y="1490" as="targetPoint" />
          </mxGeometry>
        </mxCell>
        <mxCell id="kQzFKEU-ifT5Cz4b_QPa-64" value="history_diagnosis" style="ellipse;shape=doubleEllipse;margin=3;whiteSpace=wrap;html=1;align=center;" vertex="1" parent="1">
          <mxGeometry x="570" y="1350" width="110" height="40" as="geometry" />
        </mxCell>
        <mxCell id="kQzFKEU-ifT5Cz4b_QPa-65" value="" style="endArrow=none;html=1;rounded=0;exitX=1;exitY=0.5;exitDx=0;exitDy=0;entryX=0;entryY=0.25;entryDx=0;entryDy=0;" edge="1" parent="1" source="kQzFKEU-ifT5Cz4b_QPa-64" target="kQzFKEU-ifT5Cz4b_QPa-59">
          <mxGeometry relative="1" as="geometry">
            <mxPoint x="870" y="1490" as="sourcePoint" />
            <mxPoint x="1030" y="1490" as="targetPoint" />
          </mxGeometry>
        </mxCell>
        <mxCell id="kQzFKEU-ifT5Cz4b_QPa-66" value="prescription" style="ellipse;shape=doubleEllipse;margin=3;whiteSpace=wrap;html=1;align=center;" vertex="1" parent="1">
          <mxGeometry x="570" y="1410" width="100" height="40" as="geometry" />
        </mxCell>
        <mxCell id="kQzFKEU-ifT5Cz4b_QPa-67" value="" style="endArrow=none;html=1;rounded=0;exitX=1;exitY=0.5;exitDx=0;exitDy=0;entryX=0;entryY=0.5;entryDx=0;entryDy=0;" edge="1" parent="1" source="kQzFKEU-ifT5Cz4b_QPa-66" target="kQzFKEU-ifT5Cz4b_QPa-59">
          <mxGeometry relative="1" as="geometry">
            <mxPoint x="870" y="1490" as="sourcePoint" />
            <mxPoint x="1030" y="1490" as="targetPoint" />
          </mxGeometry>
        </mxCell>
        <mxCell id="kQzFKEU-ifT5Cz4b_QPa-68" value="phone" style="ellipse;shape=doubleEllipse;margin=3;whiteSpace=wrap;html=1;align=center;" vertex="1" parent="1">
          <mxGeometry x="570" y="1460" width="100" height="40" as="geometry" />
        </mxCell>
        <mxCell id="kQzFKEU-ifT5Cz4b_QPa-69" value="" style="endArrow=none;html=1;rounded=0;entryX=0;entryY=0.75;entryDx=0;entryDy=0;" edge="1" parent="1" source="kQzFKEU-ifT5Cz4b_QPa-68" target="kQzFKEU-ifT5Cz4b_QPa-59">
          <mxGeometry relative="1" as="geometry">
            <mxPoint x="870" y="1490" as="sourcePoint" />
            <mxPoint x="1030" y="1490" as="targetPoint" />
          </mxGeometry>
        </mxCell>
        <mxCell id="kQzFKEU-ifT5Cz4b_QPa-70" value="vital_sings" style="ellipse;shape=doubleEllipse;margin=3;whiteSpace=wrap;html=1;align=center;" vertex="1" parent="1">
          <mxGeometry x="575" y="1520" width="100" height="40" as="geometry" />
        </mxCell>
        <mxCell id="kQzFKEU-ifT5Cz4b_QPa-71" value="" style="endArrow=none;html=1;rounded=0;exitX=1;exitY=0;exitDx=0;exitDy=0;entryX=0;entryY=1;entryDx=0;entryDy=0;" edge="1" parent="1" source="kQzFKEU-ifT5Cz4b_QPa-70" target="kQzFKEU-ifT5Cz4b_QPa-59">
          <mxGeometry relative="1" as="geometry">
            <mxPoint x="870" y="1490" as="sourcePoint" />
            <mxPoint x="1030" y="1490" as="targetPoint" />
          </mxGeometry>
        </mxCell>
        <mxCell id="kQzFKEU-ifT5Cz4b_QPa-73" value="date_time_registration" style="ellipse;whiteSpace=wrap;html=1;align=center;dashed=1;" vertex="1" parent="1">
          <mxGeometry x="825" y="1610" width="130" height="40" as="geometry" />
        </mxCell>
        <mxCell id="kQzFKEU-ifT5Cz4b_QPa-74" value="" style="endArrow=none;html=1;rounded=0;exitX=0.5;exitY=0;exitDx=0;exitDy=0;entryX=0.5;entryY=1;entryDx=0;entryDy=0;" edge="1" parent="1" source="kQzFKEU-ifT5Cz4b_QPa-73" target="kQzFKEU-ifT5Cz4b_QPa-59">
          <mxGeometry relative="1" as="geometry">
            <mxPoint x="870" y="1490" as="sourcePoint" />
            <mxPoint x="1030" y="1490" as="targetPoint" />
          </mxGeometry>
        </mxCell>
        <mxCell id="kQzFKEU-ifT5Cz4b_QPa-75" value="" style="endArrow=none;html=1;rounded=0;exitX=0;exitY=1;exitDx=0;exitDy=0;entryX=0.5;entryY=0;entryDx=0;entryDy=0;" edge="1" parent="1" source="kQzFKEU-ifT5Cz4b_QPa-73" target="kQzFKEU-ifT5Cz4b_QPa-76">
          <mxGeometry relative="1" as="geometry">
            <mxPoint x="870" y="1490" as="sourcePoint" />
            <mxPoint x="810" y="1720" as="targetPoint" />
          </mxGeometry>
        </mxCell>
        <mxCell id="kQzFKEU-ifT5Cz4b_QPa-76" value="registration_date" style="ellipse;whiteSpace=wrap;html=1;align=center;" vertex="1" parent="1">
          <mxGeometry x="760" y="1700" width="100" height="40" as="geometry" />
        </mxCell>
        <mxCell id="kQzFKEU-ifT5Cz4b_QPa-77" value="registration_time" style="ellipse;whiteSpace=wrap;html=1;align=center;" vertex="1" parent="1">
          <mxGeometry x="927" y="1700" width="100" height="40" as="geometry" />
        </mxCell>
        <mxCell id="kQzFKEU-ifT5Cz4b_QPa-78" value="" style="endArrow=none;html=1;rounded=0;exitX=0.5;exitY=0;exitDx=0;exitDy=0;entryX=1;entryY=1;entryDx=0;entryDy=0;" edge="1" parent="1" source="kQzFKEU-ifT5Cz4b_QPa-77" target="kQzFKEU-ifT5Cz4b_QPa-73">
          <mxGeometry relative="1" as="geometry">
            <mxPoint x="870" y="1490" as="sourcePoint" />
            <mxPoint x="1030" y="1490" as="targetPoint" />
          </mxGeometry>
        </mxCell>
        <mxCell id="kQzFKEU-ifT5Cz4b_QPa-79" value="internal_code" style="ellipse;whiteSpace=wrap;html=1;align=center;" vertex="1" parent="1">
          <mxGeometry x="610" y="1600" width="100" height="40" as="geometry" />
        </mxCell>
        <mxCell id="kQzFKEU-ifT5Cz4b_QPa-80" value="" style="endArrow=none;html=1;rounded=0;exitX=1;exitY=0;exitDx=0;exitDy=0;entryX=0.25;entryY=1;entryDx=0;entryDy=0;" edge="1" parent="1" source="kQzFKEU-ifT5Cz4b_QPa-79" target="kQzFKEU-ifT5Cz4b_QPa-59">
          <mxGeometry relative="1" as="geometry">
            <mxPoint x="960" y="1620" as="sourcePoint" />
            <mxPoint x="1120" y="1620" as="targetPoint" />
          </mxGeometry>
        </mxCell>
        <mxCell id="kQzFKEU-ifT5Cz4b_QPa-81" value="structure_summary" style="ellipse;whiteSpace=wrap;html=1;align=center;" vertex="1" parent="1">
          <mxGeometry x="1041" y="1600" width="119" height="40" as="geometry" />
        </mxCell>
        <mxCell id="kQzFKEU-ifT5Cz4b_QPa-82" value="" style="endArrow=none;html=1;rounded=0;exitX=0;exitY=0;exitDx=0;exitDy=0;entryX=0.75;entryY=1;entryDx=0;entryDy=0;" edge="1" parent="1" source="kQzFKEU-ifT5Cz4b_QPa-81" target="kQzFKEU-ifT5Cz4b_QPa-59">
          <mxGeometry relative="1" as="geometry">
            <mxPoint x="960" y="1620" as="sourcePoint" />
            <mxPoint x="1120" y="1620" as="targetPoint" />
          </mxGeometry>
        </mxCell>
        <mxCell id="kQzFKEU-ifT5Cz4b_QPa-83" value="summary_text" style="ellipse;whiteSpace=wrap;html=1;align=center;" vertex="1" parent="1">
          <mxGeometry x="1065" y="1520" width="100" height="40" as="geometry" />
        </mxCell>
        <mxCell id="kQzFKEU-ifT5Cz4b_QPa-84" value="" style="endArrow=none;html=1;rounded=0;exitX=0;exitY=0.5;exitDx=0;exitDy=0;entryX=1;entryY=1;entryDx=0;entryDy=0;" edge="1" parent="1" source="kQzFKEU-ifT5Cz4b_QPa-83" target="kQzFKEU-ifT5Cz4b_QPa-59">
          <mxGeometry relative="1" as="geometry">
            <mxPoint x="950" y="1550" as="sourcePoint" />
            <mxPoint x="1110" y="1550" as="targetPoint" />
          </mxGeometry>
        </mxCell>
        <mxCell id="kQzFKEU-ifT5Cz4b_QPa-85" value="relations" style="swimlane;fontStyle=0;childLayout=stackLayout;horizontal=1;startSize=26;horizontalStack=0;resizeParent=1;resizeParentMax=0;resizeLast=0;collapsible=1;marginBottom=0;align=center;fontSize=14;" vertex="1" parent="1">
          <mxGeometry x="1580" y="1330" width="290" height="160" as="geometry" />
        </mxCell>
        <mxCell id="kQzFKEU-ifT5Cz4b_QPa-86" value="&lt;table&gt;&lt;thead data-end=&quot;146&quot; data-start=&quot;100&quot;&gt;&lt;tr data-end=&quot;146&quot; data-start=&quot;100&quot;&gt;&lt;th data-col-size=&quot;sm&quot; data-end=&quot;111&quot; data-start=&quot;100&quot;&gt;relation&amp;nbsp; &amp;nbsp; &amp;nbsp;&amp;nbsp;&lt;/th&gt;&lt;th data-col-size=&quot;sm&quot; data-end=&quot;131&quot; data-start=&quot;111&quot;&gt;entities involved&lt;/th&gt;&lt;th data-col-size=&quot;sm&quot; data-end=&quot;146&quot; data-start=&quot;131&quot;&gt;&amp;nbsp; &amp;nbsp; &amp;nbsp; &amp;nbsp; &amp;nbsp; &amp;nbsp; &amp;nbsp; &amp;nbsp; cardinality&lt;/th&gt;&lt;/tr&gt;&lt;/thead&gt;&lt;/table&gt;&lt;table&gt;&lt;tbody&gt;&lt;tr data-end=&quot;228&quot; data-start=&quot;196&quot;&gt;&lt;td data-col-size=&quot;sm&quot; data-end=&quot;202&quot; data-start=&quot;196&quot;&gt;has&lt;/td&gt;&lt;td data-end=&quot;221&quot; data-start=&quot;202&quot; data-col-size=&quot;sm&quot;&gt;&amp;nbsp; &amp;nbsp; &amp;nbsp; &amp;nbsp; &amp;nbsp; &amp;nbsp; &amp;nbsp; patient â policy&lt;/td&gt;&lt;td data-end=&quot;228&quot; data-start=&quot;221&quot; data-col-size=&quot;sm&quot;&gt;&amp;nbsp; &amp;nbsp; &amp;nbsp; &amp;nbsp; &amp;nbsp; &amp;nbsp; &amp;nbsp; &amp;nbsp; &amp;nbsp; &amp;nbsp; &amp;nbsp; &amp;nbsp; &amp;nbsp; &amp;nbsp;1:N&lt;/td&gt;&lt;/tr&gt;&lt;/tbody&gt;&lt;/table&gt;&lt;table&gt;&lt;tbody&gt;&lt;tr data-end=&quot;268&quot; data-start=&quot;229&quot;&gt;&lt;td data-col-size=&quot;sm&quot; data-end=&quot;237&quot; data-start=&quot;229&quot;&gt;takes&lt;/td&gt;&lt;td data-end=&quot;261&quot; data-start=&quot;237&quot; data-col-size=&quot;sm&quot;&gt;&amp;nbsp; &amp;nbsp; &amp;nbsp; &amp;nbsp; &amp;nbsp; &amp;nbsp;patient â appointment&lt;/td&gt;&lt;td data-end=&quot;268&quot; data-start=&quot;261&quot; data-col-size=&quot;sm&quot;&gt;&amp;nbsp; &amp;nbsp; &amp;nbsp; &amp;nbsp; &amp;nbsp; &amp;nbsp; &amp;nbsp; &amp;nbsp; 1:N&lt;/td&gt;&lt;/tr&gt;&lt;/tbody&gt;&lt;/table&gt;&lt;table&gt;&lt;tbody&gt;&lt;tr data-end=&quot;309&quot; data-start=&quot;269&quot;&gt;&lt;td data-col-size=&quot;sm&quot; data-end=&quot;279&quot; data-start=&quot;269&quot;&gt;attends&lt;/td&gt;&lt;td data-end=&quot;302&quot; data-start=&quot;279&quot; data-col-size=&quot;sm&quot;&gt;&amp;nbsp; &amp;nbsp; &amp;nbsp; &amp;nbsp; doctor â appointment&lt;/td&gt;&lt;td data-end=&quot;309&quot; data-start=&quot;302&quot; data-col-size=&quot;sm&quot;&gt;&amp;nbsp; &amp;nbsp; &amp;nbsp; &amp;nbsp; &amp;nbsp; &amp;nbsp; &amp;nbsp; &amp;nbsp; &amp;nbsp;1:N&lt;/td&gt;&lt;/tr&gt;&lt;/tbody&gt;&lt;/table&gt;&lt;table&gt;&lt;tbody&gt;&lt;tr data-end=&quot;353&quot; data-start=&quot;310&quot;&gt;&lt;td data-col-size=&quot;sm&quot; data-end=&quot;320&quot; data-start=&quot;310&quot;&gt;records&lt;/td&gt;&lt;td data-end=&quot;346&quot; data-start=&quot;320&quot; data-col-size=&quot;sm&quot;&gt;&amp;nbsp; &amp;nbsp; &amp;nbsp; &amp;nbsp;doctor â medical_record&lt;/td&gt;&lt;td data-end=&quot;353&quot; data-start=&quot;346&quot; data-col-size=&quot;sm&quot;&gt;&amp;nbsp; &amp;nbsp; &amp;nbsp; &amp;nbsp; &amp;nbsp; &amp;nbsp; 1:N&lt;/td&gt;&lt;/tr&gt;&lt;/tbody&gt;&lt;/table&gt;&lt;table&gt;&lt;tbody&gt;&lt;tr data-end=&quot;400&quot; data-start=&quot;354&quot;&gt;&lt;td data-col-size=&quot;sm&quot; data-end=&quot;364&quot; data-start=&quot;354&quot;&gt;reviews&lt;/td&gt;&lt;td data-end=&quot;393&quot; data-start=&quot;364&quot; data-col-size=&quot;sm&quot;&gt;&amp;nbsp; &amp;nbsp; &amp;nbsp; &amp;nbsp;insurance_company â policy&lt;/td&gt;&lt;td data-end=&quot;400&quot; data-start=&quot;393&quot; data-col-size=&quot;sm&quot;&gt;&amp;nbsp; &amp;nbsp; &amp;nbsp;1:N&lt;/td&gt;&lt;/tr&gt;&lt;/tbody&gt;&lt;/table&gt;" style="text;strokeColor=none;fillColor=none;spacingLeft=4;spacingRight=4;overflow=hidden;rotatable=0;points=[[0,0.5],[1,0.5]];portConstraint=eastwest;fontSize=12;whiteSpace=wrap;html=1;" vertex="1" parent="kQzFKEU-ifT5Cz4b_QPa-85">
          <mxGeometry y="26" width="290" height="134" as="geometry" />
        </mxCell>
      </root>
    </mxGraphModel>
  </diagram>
</mxfile>
